<mxfile host="app.diagrams.net" modified="2022-03-14T16:28:36.354Z" agent="5.0 (Windows NT 10.0; Win64; x64) AppleWebKit/537.36 (KHTML, like Gecko) Chrome/94.0.4606.61 Safari/537.36 Edg/94.0.992.31" etag="4ZGm5UKkzPSdpxNMPmjk" version="16.6.4" type="github">
  <diagram id="xFKOtUgsO_bLLsWR5soC" name="Page-1">
    <mxGraphModel dx="868" dy="1582" grid="1" gridSize="10" guides="1" tooltips="1" connect="1" arrows="1" fold="1" page="1" pageScale="1" pageWidth="850" pageHeight="1100" math="0" shadow="0">
      <root>
        <mxCell id="0" />
        <mxCell id="1" parent="0" />
        <mxCell id="HYaKQt4EPXtxQXX0Oi7M-1" value="&lt;font style=&quot;font-size: 14px;&quot; color=&quot;#660033&quot;&gt;&lt;b style=&quot;font-size: 14px;&quot;&gt;LMNAS PROJECT&lt;/b&gt;&lt;/font&gt;" style="shape=ext;double=1;rounded=1;whiteSpace=wrap;html=1;fillColor=#e6d0de;strokeColor=#996185;gradientColor=#d5739d;fontFamily=Helvetica;fontSize=14;align=center;" vertex="1" parent="1">
          <mxGeometry x="50" y="280" width="240" height="40" as="geometry" />
        </mxCell>
        <mxCell id="HYaKQt4EPXtxQXX0Oi7M-2" value="&lt;b style=&quot;font-size: 14px;&quot;&gt;PROJECT NO :1&lt;/b&gt;" style="text;html=1;strokeColor=none;fillColor=none;align=center;verticalAlign=middle;whiteSpace=wrap;rounded=0;fontFamily=Helvetica;fontSize=14;" vertex="1" parent="1">
          <mxGeometry x="65" y="220" width="190" height="70" as="geometry" />
        </mxCell>
        <mxCell id="HYaKQt4EPXtxQXX0Oi7M-3" value="" style="triangle;whiteSpace=wrap;html=1;fontFamily=Helvetica;fontSize=14;fillColor=#660033;direction=south;align=center;" vertex="1" parent="1">
          <mxGeometry x="145" y="380" width="30" height="20" as="geometry" />
        </mxCell>
        <mxCell id="HYaKQt4EPXtxQXX0Oi7M-4" value="" style="triangle;whiteSpace=wrap;html=1;fontFamily=Helvetica;fontSize=14;fillColor=#190033;align=center;" vertex="1" parent="1">
          <mxGeometry x="350" y="280" width="20" height="30" as="geometry" />
        </mxCell>
        <mxCell id="HYaKQt4EPXtxQXX0Oi7M-5" value="" style="triangle;whiteSpace=wrap;html=1;fontFamily=Helvetica;fontSize=14;fillColor=#660033;direction=north;align=center;" vertex="1" parent="1">
          <mxGeometry x="145" y="180" width="30" height="20" as="geometry" />
        </mxCell>
        <mxCell id="HYaKQt4EPXtxQXX0Oi7M-6" value="" style="endArrow=none;dashed=1;html=1;dashPattern=1 3;strokeWidth=2;fontFamily=Helvetica;fontSize=14;jumpSize=8;align=center;" edge="1" parent="1">
          <mxGeometry width="50" height="50" relative="1" as="geometry">
            <mxPoint x="160" y="160" as="sourcePoint" />
            <mxPoint x="160" y="110" as="targetPoint" />
          </mxGeometry>
        </mxCell>
        <mxCell id="HYaKQt4EPXtxQXX0Oi7M-7" value="&lt;font style=&quot;font-size: 14px;&quot;&gt;&lt;b style=&quot;font-size: 14px;&quot;&gt;STAGE-1&lt;/b&gt;&lt;/font&gt;" style="text;html=1;align=center;verticalAlign=middle;resizable=0;points=[];autosize=1;strokeColor=none;fillColor=none;fontSize=14;fontFamily=Helvetica;" vertex="1" parent="1">
          <mxGeometry x="170" y="125" width="80" height="20" as="geometry" />
        </mxCell>
        <mxCell id="HYaKQt4EPXtxQXX0Oi7M-8" value="&lt;b style=&quot;font-size: 14px&quot;&gt;&lt;font style=&quot;font-size: 14px&quot; color=&quot;#ffffff&quot;&gt;Check your hardware requirements&lt;/font&gt;&lt;/b&gt;" style="strokeWidth=2;html=1;shape=mxgraph.flowchart.start_2;whiteSpace=wrap;fontFamily=Helvetica;fontSize=14;fillColor=#190033;align=center;" vertex="1" parent="1">
          <mxGeometry x="25" y="-10" width="120" height="110" as="geometry" />
        </mxCell>
        <mxCell id="HYaKQt4EPXtxQXX0Oi7M-9" value="&lt;b style=&quot;font-size: 14px&quot;&gt;&lt;font style=&quot;font-size: 14px&quot; color=&quot;#ffffff&quot;&gt;Access Github&lt;/font&gt;&lt;/b&gt;" style="ellipse;whiteSpace=wrap;html=1;aspect=fixed;fontFamily=Helvetica;fontSize=14;fillColor=#190033;align=center;" vertex="1" parent="1">
          <mxGeometry x="60" y="-110" width="80" height="80" as="geometry" />
        </mxCell>
        <mxCell id="HYaKQt4EPXtxQXX0Oi7M-10" value="&lt;b style=&quot;font-size: 14px&quot;&gt;&lt;font style=&quot;font-size: 14px&quot; color=&quot;#ffffff&quot;&gt;Install VSCode &amp;amp; Node.js&lt;/font&gt;&lt;/b&gt;" style="ellipse;whiteSpace=wrap;html=1;aspect=fixed;fontFamily=Helvetica;fontSize=14;fillColor=#190033;align=center;" vertex="1" parent="1">
          <mxGeometry x="140" y="-170" width="90" height="90" as="geometry" />
        </mxCell>
        <mxCell id="HYaKQt4EPXtxQXX0Oi7M-11" value="&lt;b style=&quot;font-size: 14px&quot;&gt;&lt;font style=&quot;font-size: 14px&quot; color=&quot;#ffffff&quot;&gt;Why Agile for LMNAS&lt;/font&gt;&lt;/b&gt;" style="ellipse;whiteSpace=wrap;html=1;aspect=fixed;fontFamily=Helvetica;fontSize=14;fillColor=#190033;align=center;" vertex="1" parent="1">
          <mxGeometry x="230" y="-110" width="100" height="100" as="geometry" />
        </mxCell>
        <mxCell id="HYaKQt4EPXtxQXX0Oi7M-12" value="&lt;b style=&quot;font-size: 14px&quot;&gt;&lt;font style=&quot;font-size: 14px&quot; color=&quot;#ffffff&quot;&gt;Roles and Responsibility&lt;/font&gt;&lt;/b&gt;" style="ellipse;whiteSpace=wrap;html=1;aspect=fixed;fontFamily=Helvetica;fontSize=14;fillColor=#190033;align=center;" vertex="1" parent="1">
          <mxGeometry x="250" width="100" height="100" as="geometry" />
        </mxCell>
        <mxCell id="HYaKQt4EPXtxQXX0Oi7M-13" value="&lt;b style=&quot;font-size: 14px;&quot;&gt;&lt;font color=&quot;#000000&quot; style=&quot;font-size: 14px;&quot;&gt;HTML&amp;nbsp; &lt;br style=&quot;font-size: 14px;&quot;&gt;&amp;amp;&lt;br style=&quot;font-size: 14px;&quot;&gt;&amp;nbsp;CSS&lt;/font&gt;&lt;/b&gt;" style="ellipse;whiteSpace=wrap;html=1;aspect=fixed;fontFamily=Helvetica;fontSize=14;fillColor=#FFFFCC;strokeColor=#36393d;align=center;" vertex="1" parent="1">
          <mxGeometry x="510" y="180" width="80" height="80" as="geometry" />
        </mxCell>
        <mxCell id="HYaKQt4EPXtxQXX0Oi7M-14" value="&lt;b style=&quot;font-size: 14px;&quot;&gt;&lt;font style=&quot;font-size: 14px;&quot;&gt;BOOTSTRAP&lt;/font&gt;&lt;/b&gt;" style="ellipse;whiteSpace=wrap;html=1;aspect=fixed;fontFamily=Helvetica;fontSize=14;fontColor=#000000;fillColor=#FFFFCC;align=center;" vertex="1" parent="1">
          <mxGeometry x="610" y="150" width="100" height="100" as="geometry" />
        </mxCell>
        <mxCell id="HYaKQt4EPXtxQXX0Oi7M-15" value="&lt;b style=&quot;font-size: 14px;&quot;&gt;&lt;font style=&quot;font-size: 14px;&quot;&gt;TAILWIND&lt;/font&gt;&lt;/b&gt;" style="ellipse;whiteSpace=wrap;html=1;aspect=fixed;fontFamily=Helvetica;fontSize=14;fontColor=#000000;fillColor=#FFFFCC;align=center;" vertex="1" parent="1">
          <mxGeometry x="690" y="250" width="90" height="90" as="geometry" />
        </mxCell>
        <mxCell id="HYaKQt4EPXtxQXX0Oi7M-16" value="&lt;font style=&quot;font-size: 14px;&quot;&gt;&lt;b style=&quot;font-size: 14px;&quot;&gt;AUTOMATION&lt;br style=&quot;font-size: 14px;&quot;&gt;TESTING&lt;/b&gt;&lt;/font&gt;" style="ellipse;whiteSpace=wrap;html=1;aspect=fixed;fontFamily=Helvetica;fontSize=14;fontColor=#000000;fillColor=#FFFFCC;align=center;" vertex="1" parent="1">
          <mxGeometry x="590" y="320" width="100" height="100" as="geometry" />
        </mxCell>
        <mxCell id="HYaKQt4EPXtxQXX0Oi7M-17" value="&lt;b style=&quot;font-size: 14px;&quot;&gt;EXAMPLE &lt;br style=&quot;font-size: 14px;&quot;&gt;REPO&lt;/b&gt;" style="ellipse;whiteSpace=wrap;html=1;aspect=fixed;fontFamily=Helvetica;fontSize=14;fontColor=#000000;fillColor=#FFFFCC;align=center;" vertex="1" parent="1">
          <mxGeometry x="500" y="290" width="80" height="80" as="geometry" />
        </mxCell>
        <mxCell id="HYaKQt4EPXtxQXX0Oi7M-18" value="&lt;font style=&quot;font-size: 14px;&quot;&gt;&lt;b style=&quot;font-size: 14px;&quot;&gt;PULL SOME REPO&lt;/b&gt;&lt;/font&gt;" style="rounded=1;whiteSpace=wrap;html=1;fontFamily=Helvetica;fontSize=14;fontColor=#000000;fillColor=#CCFFFF;align=center;" vertex="1" parent="1">
          <mxGeometry x="580" y="460" width="160" height="50" as="geometry" />
        </mxCell>
        <mxCell id="HYaKQt4EPXtxQXX0Oi7M-19" value="&lt;b style=&quot;font-size: 14px;&quot;&gt;&lt;font style=&quot;font-size: 14px;&quot; color=&quot;#000000&quot;&gt;ACCESS SOME EXAMPLES&lt;/font&gt;&lt;/b&gt;" style="rounded=1;whiteSpace=wrap;html=1;fontFamily=Helvetica;fontSize=14;fillColor=#CCFFFF;strokeColor=#36393d;align=center;" vertex="1" parent="1">
          <mxGeometry x="580" y="530" width="160" height="50" as="geometry" />
        </mxCell>
        <mxCell id="HYaKQt4EPXtxQXX0Oi7M-20" value="" style="shape=partialRectangle;whiteSpace=wrap;html=1;top=0;left=0;fillColor=none;fontFamily=Helvetica;fontSize=14;fontColor=#000000;direction=south;align=center;" vertex="1" parent="1">
          <mxGeometry x="530" y="400" width="50" height="160" as="geometry" />
        </mxCell>
        <mxCell id="HYaKQt4EPXtxQXX0Oi7M-21" value="" style="shape=partialRectangle;whiteSpace=wrap;html=1;bottom=0;right=0;fillColor=none;fontFamily=Helvetica;fontSize=14;fontColor=#000000;direction=north;align=center;" vertex="1" parent="1">
          <mxGeometry x="530" y="360" width="40" height="120" as="geometry" />
        </mxCell>
        <mxCell id="HYaKQt4EPXtxQXX0Oi7M-22" value="" style="endArrow=none;dashed=1;html=1;dashPattern=1 3;strokeWidth=2;fontFamily=Helvetica;fontSize=14;fontColor=#000000;align=center;" edge="1" parent="1">
          <mxGeometry width="50" height="50" relative="1" as="geometry">
            <mxPoint x="397.5" y="299" as="sourcePoint" />
            <mxPoint x="482.5" y="299" as="targetPoint" />
            <Array as="points">
              <mxPoint x="442.5" y="299" />
            </Array>
          </mxGeometry>
        </mxCell>
        <mxCell id="HYaKQt4EPXtxQXX0Oi7M-23" value="&lt;b style=&quot;font-size: 14px;&quot;&gt;&lt;font color=&quot;#ffffff&quot; style=&quot;font-size: 14px;&quot;&gt;STAGE-2&lt;/font&gt;&lt;/b&gt;" style="text;html=1;align=center;verticalAlign=middle;resizable=0;points=[];autosize=1;strokeColor=none;fillColor=none;fontSize=14;fontFamily=Helvetica;fontColor=#000000;" vertex="1" parent="1">
          <mxGeometry x="400" y="260" width="80" height="20" as="geometry" />
        </mxCell>
        <mxCell id="HYaKQt4EPXtxQXX0Oi7M-24" value="" style="endArrow=none;dashed=1;html=1;dashPattern=1 3;strokeWidth=2;fontFamily=Helvetica;fontSize=14;fontColor=#FFFFFF;align=center;" edge="1" parent="1">
          <mxGeometry width="50" height="50" relative="1" as="geometry">
            <mxPoint x="159.5" y="500" as="sourcePoint" />
            <mxPoint x="160" y="420" as="targetPoint" />
          </mxGeometry>
        </mxCell>
        <mxCell id="HYaKQt4EPXtxQXX0Oi7M-25" value="STAGE-3" style="text;html=1;align=center;verticalAlign=middle;resizable=0;points=[];autosize=1;strokeColor=none;fillColor=none;fontSize=14;fontFamily=Helvetica;fontColor=#FFFFFF;" vertex="1" parent="1">
          <mxGeometry x="175" y="455" width="70" height="20" as="geometry" />
        </mxCell>
        <mxCell id="HYaKQt4EPXtxQXX0Oi7M-26" value="&lt;b style=&quot;font-size: 14px;&quot;&gt;NEXT.JS&lt;/b&gt;" style="strokeWidth=2;html=1;shape=mxgraph.flowchart.start_1;whiteSpace=wrap;fontFamily=Helvetica;fontSize=14;fillColor=#6a00ff;strokeColor=#3700CC;fontColor=#ffffff;align=center;" vertex="1" parent="1">
          <mxGeometry x="80" y="510" width="85" height="80" as="geometry" />
        </mxCell>
        <mxCell id="HYaKQt4EPXtxQXX0Oi7M-27" value="&lt;b style=&quot;font-size: 14px;&quot;&gt;MJML&lt;/b&gt;" style="ellipse;whiteSpace=wrap;html=1;aspect=fixed;fontFamily=Helvetica;fontSize=14;fontColor=#ffffff;fillColor=#6a00ff;strokeColor=#3700CC;align=center;" vertex="1" parent="1">
          <mxGeometry x="145" y="550" width="80" height="80" as="geometry" />
        </mxCell>
        <mxCell id="HYaKQt4EPXtxQXX0Oi7M-28" value="" style="edgeStyle=segmentEdgeStyle;endArrow=classic;html=1;fontSize=14;" edge="1" parent="1">
          <mxGeometry width="50" height="50" relative="1" as="geometry">
            <mxPoint x="480" y="20" as="sourcePoint" />
            <mxPoint x="620" y="100" as="targetPoint" />
          </mxGeometry>
        </mxCell>
        <mxCell id="HYaKQt4EPXtxQXX0Oi7M-29" value="" style="edgeStyle=elbowEdgeStyle;elbow=vertical;endArrow=classic;html=1;fontSize=14;" edge="1" parent="1">
          <mxGeometry width="50" height="50" relative="1" as="geometry">
            <mxPoint x="480" y="520" as="sourcePoint" />
            <mxPoint x="350" y="580" as="targetPoint" />
            <Array as="points">
              <mxPoint x="480" y="580" />
            </Array>
          </mxGeometry>
        </mxCell>
      </root>
    </mxGraphModel>
  </diagram>
</mxfile>
